<?xml version="1.0" encoding="UTF-8"?>
<!-- Generator: Adobe Illustrator 27.3.1, SVG Export Plug-In . SVG Version: 6.00 Build 0)  -->
<svg xmlns="http://www.w3.org/2000/svg" xmlns:xlink="http://www.w3.org/1999/xlink" version="1.1" id="Layer_1" x="0px" y="0px" viewBox="0 0 875.6 229" style="enable-background:new 0 0 875.6 229;" xml:space="preserve">
<style type="text/css">
	.st0{fill:#FFCE36;}
	.st1{fill:url(#SVGID_1_);}
	.st2{fill:#204A9A;}
</style>
<g>
	<path class="st0" d="M327.1,199.6h-46.7c-18.4-33.2-54.7-97.3-73.1-130.5c-2.9-5.1-6.4-8.9-12.6-8.9c-6.5,0-10.4,3.1-13.4,8.4   c-1.3,2.3-5.4,10.4-6.8,12.8L151.6,40c2.6-4.7,5.2-9.4,7.8-14.1c7.8-14,20-20.4,35.6-20.3c15.6,0.1,27.5,7.3,35.1,20.8L327.1,199.6   z"></path>
	
		<linearGradient id="SVGID_1_" gradientUnits="userSpaceOnUse" x1="7.9273" y1="129.2574" x2="229.92" y2="129.2574" gradientTransform="matrix(1 0 0 -1 0 232)">
		<stop offset="0" style="stop-color:#204A9A"></stop>
		<stop offset="0.2261" style="stop-color:#1C4B9B"></stop>
		<stop offset="0.4078" style="stop-color:#0D519F"></stop>
		<stop offset="0.5739" style="stop-color:#0059A7"></stop>
		<stop offset="0.7308" style="stop-color:#0065B0"></stop>
		<stop offset="0.8799" style="stop-color:#0074BD"></stop>
		<stop offset="1" style="stop-color:#0080C9"></stop>
	</linearGradient>
	<path class="st1" d="M84.5,69.3c2.9-5.3,6.5-9.2,13-9.1c6.3,0,9.8,3.8,12.7,8.9c18.4,33.2,54.7,97.3,73.1,130.5h46.7L138.1,35.6   l0,0c-1.3-2.3-2.9-5.3-5.1-9.1c-7.6-13.5-19.5-20.8-35.1-20.8c-0.1,0-0.2,0-0.3,0C82.2,5.6,70,12,62.3,25.9   c-15.6,28.1-31.5,56.2-47,84.4c-7.2,13.1-9,27.2-5.9,41.9c5.1,23.6,33.1,52.5,67.3,46.9c11.7-1.9,21.4-6.9,30.4-14.2   c10.9-8.9,17.1-21.2,23.7-33.1c0.6-1.1,6.6-12.5,6-13.8c-4-7.5-4.9-8.8-9.1-16.2c-2.8-5-9.4-16.9-12.5-22.4   c-1.1,1.7-10.2,17.2-10.8,18.3c-5.3,9.2-8.1,14.3-13.6,23.4c-2.8,4.5-5.9,8.9-9.6,12.7c-7.2,7.4-17.1,7.6-25.2,1.2   c-7.7-6.1-10-16.5-5.4-24.9C61.9,109.9,73.3,89.7,84.5,69.3z"></path>
	<g>
		<path class="st2" d="M382.9,10.7l-37.3,81.6h9l9.8-21.8h45.5l9.8,21.8h9.1l-37.3-81.6H382.9z M367.4,63.5l19.6-43.9l19.6,43.9    H367.4z"></path>
		<rect x="437.3" y="5.8" class="st2" width="8.3" height="86.5"></rect>
		<rect x="465.5" y="5.8" class="st2" width="8.3" height="86.5"></rect>
		<path class="st2" d="M497.9,5.8c-1.7,0-3.1,0.6-4.3,1.7c-1.2,1.1-1.8,2.5-1.8,4.1c0,1.6,0.6,3,1.8,4.2s2.6,1.8,4.3,1.8    c1.8,0,3.2-0.6,4.4-1.8s1.7-2.6,1.7-4.3c0-1.6-0.6-3-1.8-4.1C501.1,6.3,499.6,5.8,497.9,5.8z"></path>
		<rect x="493.7" y="31.1" class="st2" width="8.3" height="61.2"></rect>
		<path class="st2" d="M561,34.4c-4.5-2.6-9.6-3.9-15.3-3.9c-5.7,0-10.8,1.3-15.3,4s-8.1,6.3-10.7,11c-2.6,4.7-3.9,10-3.9,16.1    s1.4,11.4,4.1,16.1c2.7,4.7,6.5,8.4,11.3,11.1c4.8,2.7,10.4,4,16.8,4c4.9,0,9.4-0.9,13.5-2.6c4.1-1.7,7.5-4.2,10.2-7.5l-4.7-5.4    c-2.3,2.7-5.1,4.7-8.3,6.1c-3.2,1.3-6.7,2-10.4,2c-4.7,0-9-1-12.7-3s-6.6-4.7-8.6-8.3c-1.7-3-2.7-6.3-3-10.1h51.4    c0-0.5,0-0.9,0.1-1.3c0-0.4,0.1-0.8,0.1-1.2c0-6.1-1.3-11.6-3.8-16.3C569,40.7,565.5,37,561,34.4z M523.9,58    c0.3-3.4,1.2-6.5,2.7-9.3c1.9-3.5,4.5-6.2,7.8-8.2s7.1-2.9,11.3-2.9c4.3,0,8,1,11.3,2.9c3.3,1.9,5.8,4.6,7.8,8.1    c1.5,2.8,2.5,5.9,2.7,9.4L523.9,58L523.9,58z"></path>
		<path class="st2" d="M636.9,5.8v36.8c-2.4-3.6-5.3-6.5-8.9-8.5c-4.2-2.4-9-3.6-14.4-3.6c-5.8,0-11.1,1.3-15.7,3.9    s-8.3,6.2-10.9,10.9s-4,10.1-4,16.3c0,6.1,1.3,11.6,4,16.3s6.3,8.4,10.9,11c4.6,2.6,9.8,4,15.7,4c5.4,0,10.3-1.2,14.5-3.7    c3.7-2.2,6.8-5.2,9.2-9v12.1h7.9V5.8H636.9z M634,74.1c-2,3.6-4.7,6.4-8.2,8.4c-3.5,2-7.4,3-11.7,3c-4.3,0-8.1-1-11.5-3    s-6.1-4.8-8.2-8.4c-2-3.6-3-7.8-3-12.5c0-4.8,1-9,3-12.6c2-3.6,4.7-6.3,8.2-8.3s7.3-3,11.5-3c4.3,0,8.3,1,11.7,3    c3.5,2,6.2,4.8,8.2,8.3c2,3.6,3,7.8,3,12.6C637,66.4,636,70.5,634,74.1z"></path>
	</g>
	<g>
		<polygon class="st2" points="421.9,117.3 393.6,164.9 364.7,117.3 345.5,117.3 345.5,199.6 366.9,199.6 366.9,157.2 388,191.5     398.3,191.5 419.5,156 419.7,199.6 441.1,199.6 441,117.3   "></polygon>
		<path class="st2" d="M504.6,139c-5.5-2.8-11.7-4.2-18.6-4.2s-13.2,1.4-18.6,4.2c-5.4,2.8-9.7,6.7-12.8,11.7s-4.6,10.7-4.6,17.1    c0,6.4,1.5,12,4.6,17c3.1,5,7.4,8.9,12.8,11.7c5.4,2.8,11.6,4.2,18.6,4.2c7,0,13.2-1.4,18.6-4.2c5.5-2.8,9.7-6.7,12.8-11.7    c3.1-5,4.6-10.6,4.6-17c0-6.4-1.5-12.1-4.6-17.1C514.3,145.7,510,141.8,504.6,139z M497.5,175.9c-1.2,2.3-2.8,4.1-4.8,5.2    c-2,1.2-4.2,1.8-6.8,1.8s-4.8-0.6-6.8-1.8c-2-1.2-3.6-2.9-4.8-5.2c-1.2-2.3-1.8-5.1-1.8-8.3c0-3.3,0.6-6,1.8-8.2    c1.2-2.2,2.8-3.9,4.8-5.1s4.2-1.8,6.8-1.8s4.8,0.6,6.8,1.8c2,1.2,3.6,2.9,4.8,5.1c1.2,2.2,1.8,4.9,1.8,8.2    C499.3,170.9,498.7,173.6,497.5,175.9z"></path>
		<path class="st2" d="M586.5,138.8c-4.7-2.7-10-4.1-15.8-4.1c-5.4,0-10,1.2-13.9,3.6c-1.4,0.9-2.7,1.9-3.9,3.2v-29.1h-22.3v87.2    H552v-6.3c1.3,1.5,2.8,2.8,4.4,3.8c3.8,2.4,8.6,3.5,14.3,3.5c5.8,0,11.1-1.4,15.8-4.1c4.7-2.7,8.5-6.5,11.3-11.4    c2.8-4.9,4.2-10.7,4.2-17.5c0-6.8-1.4-12.7-4.2-17.6C595,145.3,591.3,141.5,586.5,138.8z M577.6,175.9c-1.2,2.3-2.8,4.1-4.8,5.2    c-2,1.2-4.2,1.8-6.8,1.8s-4.8-0.6-6.8-1.8c-2-1.2-3.6-2.9-4.8-5.2c-1.2-2.3-1.8-5-1.8-8.2c0-3.4,0.6-6.1,1.8-8.4    c1.2-2.2,2.8-3.9,4.8-5.1s4.2-1.8,6.8-1.8s4.8,0.6,6.8,1.8c2,1.2,3.6,2.9,4.8,5.1c1.2,2.2,1.8,5,1.8,8.4    C579.4,170.9,578.8,173.6,577.6,175.9z"></path>
		<path class="st2" d="M631.6,108.4c-2.5-2.1-5.8-3.2-9.9-3.2c-4.2,0-7.5,1.1-9.9,3.4c-2.5,2.2-3.7,5-3.7,8.4c0,3.4,1.2,6.2,3.7,8.5    c2.5,2.3,5.8,3.4,9.9,3.4c4.2,0,7.5-1.2,9.9-3.5c2.5-2.4,3.7-5.3,3.7-8.8C635.4,113.2,634.1,110.5,631.6,108.4z"></path>
		<rect x="610.6" y="135.8" class="st2" width="22.3" height="63.8"></rect>
		<rect x="645.7" y="112.4" class="st2" width="22.3" height="87.2"></rect>
		<rect x="680.9" y="135.8" class="st2" width="22.3" height="63.8"></rect>
		<path class="st2" d="M701.9,108.4c-2.5-2.1-5.8-3.2-9.9-3.2c-4.2,0-7.5,1.1-9.9,3.4c-2.5,2.2-3.7,5-3.7,8.4c0,3.4,1.2,6.2,3.7,8.5    c2.5,2.3,5.8,3.4,9.9,3.4c4.2,0,7.5-1.2,9.9-3.5c2.5-2.4,3.7-5.3,3.7-8.8C705.7,113.2,704.4,110.5,701.9,108.4z"></path>
		<path class="st2" d="M754.5,181.4c-2,1.3-4.2,2-6.8,2c-2,0-3.7-0.6-4.9-1.9c-1.2-1.2-1.8-3.1-1.8-5.5V155h14.6v-16.7H741v-16.7    h-22.3v16.7h-9.3V155h9.3v21.4c0,8.1,2.3,14.2,6.8,18.3c4.5,4,10.9,6.1,19,6.1c3,0,5.8-0.3,8.5-0.9s5.1-1.6,7.1-2.9L754.5,181.4z"></path>
		<path class="st2" d="M797,174.8l-15.6-39h-22.9l27.3,64.6c-0.9,1.7-1.8,2.9-2.9,3.8c-1.4,1.1-3.3,1.6-5.8,1.6    c-1.7,0-3.5-0.3-5.2-1s-3.3-1.5-4.6-2.6l-7.9,15.5c2.2,1.7,5,3.1,8.5,4.2c3.5,1.1,6.8,1.6,10.1,1.6c4.2,0,8.1-0.6,11.6-1.9    c3.5-1.3,6.6-3.4,9.5-6.5s5.4-7.4,7.6-12.9l27.4-66.4h-21.2L797,174.8z"></path>
		<polygon class="st2" points="837.8,137.6 841.9,137.6 841.9,148.3 845,148.3 845,137.6 849.2,137.6 849.2,135.2 837.8,135.2   "></polygon>
		<polygon class="st2" points="865.5,135.2 863,135.2 858.2,143.3 853.3,135.2 850.8,135.2 850.8,148.3 853.6,148.3 853.6,140.6     857.5,146.9 858.8,146.9 862.7,140.4 862.7,148.3 865.5,148.3   "></polygon>
	</g>
</g>
</svg>
